<svg id="Layer_1" data-name="Layer 1" xmlns="http://www.w3.org/2000/svg" viewBox="0 0 484.16 453.15"><path d="M425.07,102.41Z" transform="translate(-7.92 -23.43)"/><path d="M410.32,140.69a50.11,50.11,0,0,1-14.57,1.91l.26-1.55c8-7.62,32.42-27.07,29.05-38.64-11.24,4.67-34,14.52-44.91,19.62h0C325.2,64.39,221,116.84,246.87,190.26c-40.76,5.76-163.2-59.61-159.31-80.7-20.61,24.62-9.14,87.8,23,103.48A64.37,64.37,0,0,1,90,209.5c-9.49-3.32-13.1-6.52-13.1-6.52-12.38,25.71,35.72,75.3,61.31,77.53l-34.71,1c-1.95,33.73,70.75,53.76,70.75,53.76C142.63,360.83,100.08,368,62.07,355.82,203.94,479.62,403.56,335.92,397.58,174l.17.22s6.08-3,19.09-16A134.74,134.74,0,0,0,437.93,130S418.48,138.44,410.32,140.69Z" transform="translate(-7.92 -23.43)"/><path d="M79.78,103,94.46,85.5,71.36,54.61h66.18l93.39,124.87c1,.16,1.89.3,2.8.42A71.83,71.83,0,0,1,239,138.15L153.17,23.43H9.1l65.44,87.5A44.51,44.51,0,0,1,79.78,103Z" transform="translate(-7.92 -23.43)"/><path d="M382.23,109.92c3.77-1.7,8.12-3.63,12.61-5.59l74.88-80.9H427.38l-66.83,72.2A88.8,88.8,0,0,1,382.23,109.92Z" transform="translate(-7.92 -23.43)"/><path d="M366.55,308.74a252.25,252.25,0,0,1-20,25.33l83.25,111.32H363.63l-56.58-75.64a239.63,239.63,0,0,1-26.43,16.72L348,476.57H492.08Z" transform="translate(-7.92 -23.43)"/><path d="M89.87,388.05,7.92,476.57H50.26l69.25-74.8A192.42,192.42,0,0,1,89.87,388.05Z" transform="translate(-7.92 -23.43)"/><path d="M425.07,102.42c.1,2.07,0,.2,0,0Z" transform="translate(-7.92 -23.43)"/></svg>